{"accessors" : [{"bufferView" : 0, "byteOffset" : 0, "componentType" : 5123, "count" : 45540, "type" : "SCALAR", "max" : [45539], "min" : [0]}, {"bufferView" : 1, "byteOffset" : 0, "componentType" : 5126, "count" : 45540, "type" : "VEC3", "max" : [0.9323999881744385, 3.0635998249053955, -0.041010499000549316], "min" : [-0.9989999532699585, 0.9323999881744385, -3.8959972858428955], "name" : "POSITION"}, {"bufferView" : 1, "byteOffset" : 12, "componentType" : 5126, "count" : 45540, "type" : "VEC3", "max" : [0.699999988079071, 0.699999988079071, 0.699999988079071], "min" : [0.699999988079071, 0.699999988079071, 0.699999988079071], "name" : "COLOR_0"}], "asset" : {"generator" : "Aspose.3D 22.1", "version" : "2.0"}, "buffers" : [{"uri" : "data:application/octet-stream;base64,", "byteLength" : 1184048}], "bufferViews" : [{"buffer" : 0, "byteOffset" : 0, "byteLength" : 91080, "target" : 34963}, {"buffer" : 0, "byteOffset" : 91084, "byteLength" : 1092960, "byteStride" : 24, "target" : 34962}], "materials" : [{"name" : "", "pbrMetallicRoughness" : {"baseColorFactor" : [0.8999999761581421, 0.8999999761581421, 0.8999999761581421, 1], "metallicFactor" : 0, "roughnessFactor" : 0}, "emissiveFactor" : [0, 0, 0], "alphaMode" : "OPAQUE", "doubleSided" : false}], "meshes" : [{"primitives" : [{"attributes" : {"POSITION" : 1, "COLOR_0" : 2}, "indices" : 0, "material" : 0, "mode" : 4}], "name" : ""}], "nodes" : [{"mesh" : 0, "name" : "GSLAYER"}], "scene" : 0, "scenes" : [{"nodes" : [0]}]}