{"accessors" : [{"bufferView" : 0, "byteOffset" : 0, "componentType" : 5123, "count" : 60954, "type" : "SCALAR", "max" : [60953], "min" : [0]}, {"bufferView" : 1, "byteOffset" : 0, "componentType" : 5126, "count" : 60954, "type" : "VEC3", "max" : [3.0636000633239746, 3.0635998249053955, -0.3490316867828369], "min" : [-0.9989999532699585, -0.999000072479248, -2.1410868167877197], "name" : "POSITION"}, {"bufferView" : 1, "byteOffset" : 12, "componentType" : 5126, "count" : 60954, "type" : "VEC3", "max" : [0.699999988079071, 0.699999988079071, 0.699999988079071], "min" : [0.699999988079071, 0.699999988079071, 0.699999988079071], "name" : "COLOR_0"}], "asset" : {"generator" : "Aspose.3D 22.1", "version" : "2.0"}, "buffers" : [{"uri" : "data:application/octet-stream;base64,", "byteLength" : 1584812}], "bufferViews" : [{"buffer" : 0, "byteOffset" : 0, "byteLength" : 121908, "target" : 34963}, {"buffer" : 0, "byteOffset" : 121912, "byteLength" : 1462896, "byteStride" : 24, "target" : 34962}], "materials" : [{"name" : "", "pbrMetallicRoughness" : {"baseColorFactor" : [0.8999999761581421, 0.8999999761581421, 0.8999999761581421, 1], "metallicFactor" : 0, "roughnessFactor" : 0}, "emissiveFactor" : [0, 0, 0], "alphaMode" : "OPAQUE", "doubleSided" : false}], "meshes" : [{"primitives" : [{"attributes" : {"POSITION" : 1, "COLOR_0" : 2}, "indices" : 0, "material" : 0, "mode" : 4}], "name" : ""}], "nodes" : [{"mesh" : 0, "name" : "GSLAYER"}], "scene" : 0, "scenes" : [{"nodes" : [0]}]}